<?xml version="1.0" encoding="utf-8"?>
<!-- Generator: Adobe Illustrator 15.1.0, SVG Export Plug-In . SVG Version: 6.00 Build 0)  -->
<!DOCTYPE svg PUBLIC "-//W3C//DTD SVG 1.1//EN" "http://www.w3.org/Graphics/SVG/1.1/DTD/svg11.dtd">
<svg version="1.1" id="Layer_1" xmlns="http://www.w3.org/2000/svg" xmlns:xlink="http://www.w3.org/1999/xlink" x="0px" y="0px"
	 width="512px" height="512px" viewBox="0 0 512 512" enable-background="new 0 0 512 512" xml:space="preserve">
<polygon fill="#73878C" points="231.18,363.624 231.18,148.133 333.933,250.896 "/>
<linearGradient id="SVGID_1_" gradientUnits="userSpaceOnUse" x1="84.5386" y1="425.1631" x2="423.0877" y2="86.614">
	<stop  offset="0" style="stop-color:#5C7AA6"/>
	<stop  offset="1" style="stop-color:#86D0E2"/>
</linearGradient>
<path fill="url(#SVGID_1_)" d="M253.794,495.357c-132.06,0-239.499-107.414-239.499-239.442c0-132.07,107.438-239.52,239.499-239.52
	c132.087,0,239.551,107.449,239.551,239.52C493.346,387.943,385.882,495.357,253.794,495.357z M253.794,37.944
	c-120.177,0-217.95,97.779-217.95,217.971c0,120.146,97.772,217.894,217.95,217.894c120.206,0,218.002-97.748,218.002-217.894
	C471.797,135.724,374,37.944,253.794,37.944z"/>
</svg>
