<?xml version="1.0" encoding="utf-8"?>
<!-- Generator: Adobe Illustrator 15.1.0, SVG Export Plug-In . SVG Version: 6.00 Build 0)  -->
<!DOCTYPE svg PUBLIC "-//W3C//DTD SVG 1.1//EN" "http://www.w3.org/Graphics/SVG/1.1/DTD/svg11.dtd">
<svg version="1.1" id="Layer_1" xmlns="http://www.w3.org/2000/svg" xmlns:xlink="http://www.w3.org/1999/xlink" x="0px" y="0px"
	 width="512px" height="512px" viewBox="0 0 512 512" enable-background="new 0 0 512 512" xml:space="preserve">
<rect x="169.638" y="168.734" fill="#73878C" width="174.281" height="174.288"/>
<linearGradient id="SVGID_1_" gradientUnits="userSpaceOnUse" x1="85.6377" y1="427.0205" x2="427.9017" y2="84.7565">
	<stop  offset="0" style="stop-color:#5C7AA6"/>
	<stop  offset="1" style="stop-color:#86D0E2"/>
</linearGradient>
<path fill="url(#SVGID_1_)" d="M256.745,497.988c-133.504,0-242.116-108.594-242.116-242.073
	c0-133.521,108.612-242.151,242.116-242.151c133.539,0,242.184,108.63,242.184,242.151
	C498.929,389.395,390.284,497.988,256.745,497.988z M256.745,35.55c-121.491,0-220.331,98.854-220.331,220.366
	c0,121.465,98.84,220.288,220.331,220.288c121.526,0,220.397-98.822,220.397-220.288C477.143,134.404,378.271,35.55,256.745,35.55z"
	/>
</svg>
